<svg width="96" height="12" viewBox="0 0 96 12" fill="none" xmlns="http://www.w3.org/2000/svg">
<g opacity="0.7" clip-path="url(#clip0)">
<path d="M25.8719 9.60804C25.1021 9.61501 24.3326 9.57246 23.5682 9.48067C23.53 9.47769 23.4927 9.46714 23.4586 9.44962C23.4245 9.43211 23.3942 9.40799 23.3694 9.37866C23.3447 9.34933 23.3261 9.31538 23.3146 9.27879C23.3032 9.2422 23.2991 9.20369 23.3026 9.16551V0.468263C23.2972 0.391279 23.3218 0.315176 23.3713 0.255985C23.4209 0.196794 23.4914 0.159135 23.5682 0.15094C24.3326 0.0601539 25.1021 0.0183345 25.8719 0.0257375C28.2145 0.0257375 29.7085 1.22811 29.7085 3.96098V5.67064C29.7085 8.37976 28.2145 9.60804 25.8719 9.60804ZM28.5578 3.96098C28.5578 1.67064 27.3919 1.01225 25.8719 1.01225C25.2782 1.01225 24.8852 1.0252 24.4685 1.0511V8.60642C24.8723 8.63016 25.2782 8.63016 25.8719 8.63016C27.3832 8.63016 28.5578 7.96098 28.5578 5.68143V3.96098Z" fill="black"/>
<path d="M36.4448 6.39194H32.2022V6.5452C32.2022 8.00014 32.8867 8.67148 34.0525 8.67148C34.7755 8.66266 35.4969 8.60352 36.2116 8.49447H36.2764C36.3015 8.49107 36.3271 8.49311 36.3514 8.50047C36.3757 8.50783 36.3982 8.52032 36.4172 8.53711C36.4363 8.5539 36.4515 8.57459 36.4618 8.59778C36.4722 8.62096 36.4774 8.6461 36.4772 8.67148V9.10322C36.4772 9.26727 36.4275 9.35578 36.2245 9.39463C35.5086 9.54212 34.7792 9.61447 34.0482 9.6105C32.6017 9.60834 31.0903 8.91109 31.0903 6.47612V5.59107C31.0903 3.79291 32.0921 2.46533 33.8971 2.46533C35.7452 2.46533 36.6823 3.77996 36.6823 5.57812V6.10915C36.6844 6.27969 36.5959 6.39194 36.4448 6.39194ZM35.5574 5.48098C35.5574 4.1275 35.0133 3.44321 33.8993 3.44321C32.7852 3.44321 32.2022 4.17715 32.2022 5.48098V5.54358H35.5574V5.48098Z" fill="black"/>
<path d="M43.5221 2.86018L41.9007 8.60869C41.6848 9.40524 41.1796 9.60815 40.6722 9.60815C40.1648 9.60815 39.6726 9.40524 39.4459 8.60869L37.8244 2.86018C37.8145 2.83176 37.8101 2.80173 37.8115 2.77167C37.8087 2.74374 37.8119 2.71553 37.8209 2.68894C37.8299 2.66236 37.8446 2.63802 37.8638 2.61756C37.883 2.5971 37.9064 2.58101 37.9324 2.57035C37.9584 2.5597 37.9864 2.55474 38.0144 2.55581H38.7096C38.8111 2.55581 38.9126 2.63136 38.9514 2.79542L40.3743 8.29137C40.4498 8.60869 40.5513 8.68425 40.6765 8.68425C40.8017 8.68425 40.9054 8.60869 40.9809 8.29137L42.3951 2.80621C42.434 2.64215 42.5333 2.5666 42.6348 2.5666H43.3451C43.3716 2.5644 43.3982 2.56819 43.423 2.57766C43.4478 2.58714 43.4701 2.60207 43.4883 2.62134C43.5066 2.64062 43.5203 2.66375 43.5284 2.68902C43.5364 2.7143 43.5388 2.74107 43.5351 2.76735C43.5356 2.79878 43.5312 2.83009 43.5221 2.86018Z" fill="black"/>
<path d="M50.0425 6.39194H45.7999V6.5452C45.7999 8.00014 46.4843 8.67148 47.6481 8.67148C48.371 8.66256 49.0924 8.60342 49.8071 8.49447H49.8719C49.897 8.49143 49.9225 8.49373 49.9466 8.50122C49.9707 8.50871 49.993 8.52123 50.012 8.53795C50.031 8.55467 50.0462 8.57521 50.0566 8.59822C50.0671 8.62124 50.0726 8.6462 50.0727 8.67148V9.10322C50.0727 9.26727 50.023 9.35578 49.8201 9.39464C49.1034 9.54223 48.3733 9.61458 47.6416 9.6105C46.2037 9.60834 44.6923 8.9111 44.6923 6.47613V5.59107C44.6923 3.79291 45.6941 2.46533 47.4991 2.46533C49.3472 2.46533 50.2843 3.77996 50.2843 5.57812V6.10915C50.2821 6.27969 50.1936 6.39194 50.0425 6.39194ZM49.1551 5.48098C49.1551 4.1275 48.611 3.44321 47.4969 3.44321C46.3829 3.44321 45.7999 4.17715 45.7999 5.48098V5.54358H49.1551V5.48098Z" fill="black"/>
<path d="M52.7888 9.5197H52.1303C52.0684 9.51314 52.0115 9.48302 51.9713 9.43558C51.9311 9.38815 51.9107 9.32705 51.9144 9.26498V0.239611C51.9114 0.179263 51.9325 0.1202 51.9729 0.0753107C52.0134 0.0304209 52.0699 0.00334829 52.1303 0L52.7888 0C52.8197 0.000267072 52.8502 0.00672799 52.8786 0.0190004C52.9069 0.0312728 52.9325 0.0491073 52.9539 0.0714485C52.9752 0.0937897 52.9918 0.120184 53.0028 0.149068C53.0138 0.177953 53.0188 0.208741 53.0176 0.239611V9.26498C53.0194 9.29674 53.0149 9.32853 53.0043 9.35853C52.9937 9.38854 52.9773 9.41616 52.9561 9.43982C52.9348 9.46349 52.9091 9.48272 52.8804 9.49643C52.8517 9.51013 52.8206 9.51804 52.7888 9.5197Z" fill="black"/>
<path d="M57.448 9.60842C55.5869 9.60842 54.6412 8.38014 54.6412 6.51938V5.55661C54.6412 3.69585 55.5912 2.46973 57.448 2.46973C59.3048 2.46973 60.272 3.69585 60.272 5.55661V6.51938C60.272 8.38014 59.3091 9.60842 57.448 9.60842ZM59.158 5.55661C59.158 4.26142 58.6376 3.44328 57.448 3.44328C56.2584 3.44328 55.751 4.25278 55.751 5.55661V6.51938C55.751 7.81457 56.2584 8.63271 57.448 8.63271C58.6376 8.63271 59.158 7.82321 59.158 6.51938V5.55661Z" fill="black"/>
<path d="M64.3613 9.60842C63.8646 9.60103 63.3693 9.55412 62.8802 9.46811V11.7606C62.8796 11.8244 62.8539 11.8853 62.8086 11.9302C62.7633 11.975 62.7021 12.0002 62.6383 12.0002H61.9906C61.9598 12 61.9294 11.9935 61.9011 11.9812C61.8729 11.9689 61.8474 11.951 61.8263 11.9286C61.8051 11.9063 61.7887 11.8799 61.778 11.851C61.7672 11.8221 61.7625 11.7914 61.7639 11.7606V3.05041C61.7639 2.88635 61.8006 2.8108 62.0295 2.75899C62.7928 2.57582 63.5742 2.47879 64.3591 2.46973C66.244 2.46973 67.1184 3.69585 67.1184 5.59547V6.50642C67.1205 8.49455 66.2094 9.60842 64.3613 9.60842ZM66.0065 5.59547C66.0065 4.26573 65.6135 3.40443 64.3613 3.40443C63.865 3.4078 63.3697 3.45038 62.8802 3.53179V8.5442C63.37 8.62364 63.8651 8.66621 64.3613 8.67156C65.6006 8.67156 66.0065 7.86206 66.0065 6.5129V5.59547Z" fill="black"/>
<path d="M76.7672 9.51992H76.1087C76.0767 9.51917 76.0452 9.51185 76.0162 9.49841C75.9872 9.48498 75.9612 9.46572 75.9399 9.44182C75.9187 9.41793 75.9026 9.38992 75.8926 9.35954C75.8826 9.32915 75.879 9.29704 75.882 9.26519V4.68451C75.882 3.59439 75.4135 3.44328 74.742 3.44328H74.4505C73.6409 3.44328 73.371 3.5836 73.371 4.30675V9.27167C73.3737 9.30363 73.3698 9.33579 73.3595 9.36618C73.3493 9.39657 73.333 9.42455 73.3115 9.44841C73.2901 9.47226 73.264 9.49148 73.2349 9.50489C73.2058 9.5183 73.1742 9.52562 73.1421 9.52639H72.4836C72.4516 9.52564 72.4202 9.51832 72.3911 9.50489C72.3621 9.49145 72.3362 9.47219 72.3149 9.4483C72.2936 9.42441 72.2775 9.3964 72.2675 9.36601C72.2576 9.33563 72.254 9.30351 72.2569 9.27167V4.30675C72.2569 3.58576 71.9784 3.44328 71.1774 3.44328H70.8859C70.2274 3.44328 69.746 3.59439 69.746 4.68451V9.26519C69.7486 9.29715 69.7447 9.32931 69.7345 9.3597C69.7243 9.39009 69.7079 9.41808 69.6865 9.44193C69.6651 9.46578 69.639 9.48501 69.6099 9.49842C69.5807 9.51183 69.5492 9.51914 69.5171 9.51992H68.8694C68.8373 9.51914 68.8058 9.51183 68.7766 9.49842C68.7475 9.48501 68.7214 9.46578 68.7 9.44193C68.6785 9.41808 68.6622 9.39009 68.652 9.3597C68.6418 9.32931 68.6379 9.29715 68.6405 9.26519V4.68451C68.6405 3.38932 69.3746 2.46973 70.8946 2.46973H71.186C71.9439 2.46973 72.4383 2.56903 72.8312 2.9252C73.2112 2.59493 73.7164 2.46973 74.4764 2.46973H74.7679C76.2792 2.46973 77.0219 3.38068 77.0219 4.68451V9.26519C77.0249 9.29939 77.0204 9.33382 77.0086 9.36607C76.9968 9.39832 76.9782 9.42761 76.9539 9.45188C76.9296 9.47615 76.9003 9.49482 76.8681 9.50657C76.8358 9.51832 76.8014 9.52288 76.7672 9.51992Z" fill="black"/>
<path d="M83.8705 6.39181H79.6301V6.54507C79.6301 8.00001 80.3124 8.67136 81.4783 8.67136C82.2012 8.66254 82.9226 8.60339 83.6373 8.49435H83.7021C83.7273 8.49097 83.753 8.49302 83.7774 8.50036C83.8018 8.5077 83.8244 8.52016 83.8436 8.53692C83.8628 8.55367 83.8782 8.57433 83.8888 8.59751C83.8994 8.6207 83.9049 8.64587 83.905 8.67136V9.10309C83.905 9.26715 83.8532 9.35565 83.6503 9.39451C82.9343 9.54211 82.2049 9.61446 81.4739 9.61037C80.0166 9.61037 78.5117 8.91313 78.5117 6.48247V5.59742C78.5117 3.79926 79.5114 2.47168 81.3185 2.47168C83.1688 2.47168 84.1037 3.78631 84.1037 5.58447V6.1155C84.1101 6.27956 84.0216 6.39181 83.8705 6.39181ZM82.9853 5.48085C82.9853 4.12737 82.439 3.44308 81.325 3.44308C80.2109 3.44308 79.6301 4.17702 79.6301 5.48085V5.54346H82.9853V5.48085Z" fill="black"/>
<path d="M90.706 9.51971H90.0583C90.0252 9.52074 89.9922 9.51475 89.9615 9.50213C89.9308 9.48952 89.9032 9.47056 89.8803 9.44651C89.8575 9.42246 89.84 9.39385 89.829 9.36257C89.818 9.33129 89.8138 9.29803 89.8165 9.26499V4.74907C89.8165 3.79926 89.5769 3.43228 88.7154 3.43228H87.8151C86.9514 3.43228 86.714 3.79926 86.714 4.74907V9.26499C86.7169 9.29596 86.7136 9.32722 86.7043 9.35691C86.695 9.3866 86.6798 9.41413 86.6597 9.43787C86.6396 9.46161 86.6149 9.48108 86.5872 9.49513C86.5594 9.50919 86.5291 9.51755 86.498 9.51971H85.8395C85.8075 9.51894 85.7759 9.51162 85.7468 9.49821C85.7176 9.4848 85.6916 9.46558 85.6701 9.44172C85.6487 9.41787 85.6324 9.38989 85.6221 9.3595C85.6119 9.3291 85.608 9.29694 85.6107 9.26499V4.74907C85.6107 2.80627 86.9666 2.47168 87.8259 2.47168H88.7262C89.5898 2.47168 90.9414 2.7998 90.9414 4.74907V9.26499C90.9441 9.29748 90.94 9.33018 90.9294 9.36101C90.9187 9.39184 90.9018 9.42012 90.8797 9.44407C90.8576 9.46802 90.8307 9.48711 90.8008 9.50013C90.7709 9.51316 90.7386 9.51982 90.706 9.51971Z" fill="black"/>
<path d="M95.7452 9.53252C95.342 9.58316 94.936 9.6084 94.5297 9.60808C93.34 9.60808 92.6578 9.2152 92.6578 7.84877V1.31666C92.6578 1.1893 92.77 1.10079 92.9104 1.07489L93.53 0.97559H93.5559C93.5864 0.975405 93.6166 0.981669 93.6444 0.993971C93.6723 1.00627 93.6973 1.02433 93.7177 1.04697C93.738 1.0696 93.7534 1.09629 93.7628 1.12528C93.7721 1.15428 93.7752 1.18492 93.7718 1.2152V2.55789H95.7452C95.7766 2.55404 95.8084 2.55714 95.8385 2.56695C95.8685 2.57676 95.8961 2.59305 95.9191 2.61467C95.9422 2.63629 95.9602 2.66271 95.972 2.69206C95.9837 2.72142 95.9888 2.75299 95.987 2.78455V3.21628C95.9879 3.24808 95.9823 3.27973 95.9704 3.30925C95.9585 3.33877 95.9407 3.36551 95.918 3.3878C95.8953 3.4101 95.8682 3.42746 95.8385 3.43881C95.8087 3.45015 95.777 3.45523 95.7452 3.45373H93.7718V7.84877C93.7718 8.58271 94.0115 8.71223 94.7089 8.71223H95.7344C95.9114 8.71223 96 8.76404 96 8.8914V9.32313C96 9.43107 95.9352 9.49799 95.7452 9.53252Z" fill="black"/>
<path d="M6.81181 9.49826C6.24182 9.58676 4.65276 9.70117 4.10221 9.70117C1.65816 9.71412 1.09592e-05 9.0989 1.09592e-05 6.02281V0.431877C-0.000301445 0.398923 0.00606821 0.366248 0.0187354 0.335823C0.0314027 0.305398 0.0501047 0.277855 0.0737127 0.254856C0.0973208 0.231858 0.125345 0.213881 0.156094 0.20201C0.186843 0.19014 0.219679 0.184622 0.25262 0.18579H2.31667C2.34969 0.184309 2.38266 0.189611 2.41355 0.201369C2.44444 0.213128 2.47259 0.231092 2.49626 0.254154C2.51994 0.277216 2.53863 0.304885 2.55119 0.335452C2.56375 0.36602 2.5699 0.398837 2.56928 0.431877V6.02281C2.56928 7.16043 2.94927 7.53387 3.8496 7.53387C4.25594 7.53333 4.66187 7.5081 5.06514 7.45832V0.431877C5.06452 0.398837 5.07068 0.36602 5.08324 0.335452C5.09579 0.304885 5.11449 0.277216 5.13816 0.254154C5.16183 0.231092 5.18998 0.213128 5.22087 0.201369C5.25176 0.189611 5.28473 0.184309 5.31775 0.18579H7.36885C7.40249 0.184345 7.43608 0.189581 7.46768 0.201196C7.49928 0.21281 7.52827 0.230573 7.55297 0.253456C7.57766 0.27634 7.59757 0.30389 7.61155 0.334515C7.62553 0.36514 7.6333 0.398232 7.63441 0.431877V8.52902C7.63441 9.23706 7.41851 9.41407 6.81181 9.49826Z" fill="black"/>
<path d="M11.6092 9.59108H9.53224C9.46599 9.58995 9.40284 9.56284 9.3564 9.51559C9.30996 9.46835 9.28394 9.40476 9.28395 9.33851V0.431877C9.28365 0.399296 9.28989 0.366987 9.30229 0.336856C9.31469 0.306725 9.333 0.279383 9.35615 0.256445C9.37929 0.233507 9.4068 0.215437 9.43704 0.203301C9.46728 0.191166 9.49965 0.185212 9.53224 0.18579H11.6092C11.6423 0.184309 11.6752 0.189611 11.7061 0.201369C11.737 0.213128 11.7652 0.231092 11.7888 0.254154C11.8125 0.277216 11.8312 0.304885 11.8438 0.335452C11.8563 0.36602 11.8625 0.398837 11.8619 0.431877V9.33851C11.8619 9.4055 11.8352 9.46974 11.7879 9.5171C11.7405 9.56447 11.6762 9.59108 11.6092 9.59108Z" fill="black"/>
<path d="M18.9522 9.47863C18.3763 9.64467 17.7788 9.72397 17.1796 9.71392C14.85 9.71392 13.2803 8.44031 13.2803 5.54123V4.24603C13.2803 1.33831 14.85 0.0733392 17.1796 0.0733392C17.7779 0.0558704 18.3755 0.128643 18.9522 0.289205C19.1551 0.353965 19.2307 0.390663 19.2307 0.567673V2.18883C19.2307 2.35289 19.1551 2.42844 19.0148 2.42844H18.9759C18.3875 2.35886 17.7958 2.32067 17.2033 2.31403C16.5189 2.31403 15.9079 2.6184 15.9079 4.2266V5.5218C15.9079 7.11705 16.5146 7.43222 17.2033 7.43222C17.7918 7.43225 18.3799 7.40126 18.9651 7.3394H18.9997C19.1508 7.3394 19.2156 7.41495 19.2156 7.57901V9.20016C19.2307 9.36422 19.1551 9.41387 18.9522 9.47863Z" fill="black"/>
</g>
<defs>
<clipPath id="clip0">
<rect width="96" height="12" fill="white"/>
</clipPath>
</defs>
</svg>
